0
SECTION
2
HEADER
9
$INSUNITS
70
4
9
$ACADVER
1
AC1014
9
$HANDSEED
5
FFFF
0
ENDSEC
0
SECTION
2
TABLES
0
TABLE
2
VPORT
5
8
100
AcDbSymbolTable
0
ENDTAB
0
TABLE
2
LTYPE
5
5
100
AcDbSymbolTable
0
LTYPE
5
14
100
AcDbSymbolTableRecord
100
AcDbLinetypeTableRecord
2
BYBLOCK
70
0
0
LTYPE
5
15
100
AcDbSymbolTableRecord
100
AcDbLinetypeTableRecord
2
BYLAYER
70
0
0
ENDTAB
0
TABLE
2
LAYER
5
2
100
AcDbSymbolTable
70
2
0
LAYER
5
50
100
AcDbSymbolTableRecord
100
AcDbLayerTableRecord
2
0
70
0
6
CONTINUOUS
0
ENDTAB
0
TABLE
2
STYLE
5
3
100
AcDbSymbolTable
70
1
0
STYLE
5
11
100
AcDbSymbolTableRecord
100
AcDbTextStyleTableRecord
2
STANDARD
70
0
0
ENDTAB
0
TABLE
2
VIEW
5
6
100
AcDbSymbolTable
70
0
0
ENDTAB
0
TABLE
2
UCS
5
7
100
AcDbSymbolTable
70
0
0
ENDTAB
0
TABLE
2
APPID
5
9
100
AcDbSymbolTable
70
2
0
APPID
5
12
100
AcDbSymbolTableRecord
100
AcDbRegAppTableRecord
2
ACAD
70
0
0
ENDTAB
0
TABLE
2
DIMSTYLE
5
A
100
AcDbSymbolTable
70
1
0
ENDTAB
0
TABLE
2
BLOCK_RECORD
5
1
100
AcDbSymbolTable
70
1
0
BLOCK_RECORD
5
1F
100
AcDbSymbolTableRecord
100
AcDbBlockTableRecord
2
*MODEL_SPACE
0
BLOCK_RECORD
5
1B
100
AcDbSymbolTableRecord
100
AcDbBlockTableRecord
2
*PAPER_SPACE
0
ENDTAB
0
ENDSEC
0
SECTION
2
BLOCKS
0
BLOCK
5
20
100
AcDbEntity
100
AcDbBlockBegin
2
*MODEL_SPACE
0
ENDBLK
5
21
100
AcDbEntity
100
AcDbBlockEnd
0
BLOCK
5
1C
100
AcDbEntity
100
AcDbBlockBegin
2
*PAPER_SPACE
0
ENDBLK
5
1D
100
AcDbEntity
100
AcDbBlockEnd
0
ENDSEC
0
SECTION
2
ENTITIES
0
LWPOLYLINE
5
100
100
AcDbEntity
8
0
100
AcDbPolyline
90
4
70
1
43
0.0
10
4.2856163512967971
20
57.39429326776775
10
14.285616351296797
20
57.39429326776775
10
14.285616351296797
20
62.39429326776775
10
4.2856163512967971
20
62.39429326776775
0
CIRCLE
5
101
100
AcDbEntity
8
0
100
AcDbCircle
10
125.68697601542613
20
59.690000000000012
30
0
40
4.2500000000000071
210
0
220
-0
230
1
0
LWPOLYLINE
5
102
100
AcDbEntity
8
0
100
AcDbPolyline
90
4
70
1
43
0.0
10
-16.064648300087185
20
62.39429326776775
10
-16.064648300087185
20
57.39429326776775
10
-6.0646483000871854
20
57.39429326776775
10
-6.0646483000871854
20
62.39429326776775
0
LWPOLYLINE
5
103
100
AcDbEntity
8
0
100
AcDbPolyline
90
4
70
1
43
0.0
10
92.087473272879976
20
57.39429326776775
10
102.08747327287998
20
57.39429326776775
10
102.08747327287998
20
62.39429326776775
10
92.087473272879976
20
62.39429326776775
0
LWPOLYLINE
5
104
100
AcDbEntity
8
0
100
AcDbPolyline
90
4
70
1
43
0.0
10
37.948374155190628
20
11.751642217758071
10
32.952228217628267
20
11.751642217758071
10
32.952228217628274
20
1.7554596301077765
10
37.948374155190628
20
1.7554626008667895
0
LWPOLYLINE
5
105
100
AcDbEntity
8
0
100
AcDbPolyline
90
4
70
1
43
0.0
10
37.948374155190635
20
99.553493051625139
10
32.952228217628289
20
99.553490080866112
10
32.952228217628289
20
89.557342655631913
10
37.948374155190635
20
89.557345626390926
0
LWPOLYLINE
5
106
100
AcDbEntity
8
0
100
AcDbPolyline
90
4
70
1
43
0.0
10
37.948374155190635
20
119.90376375324681
10
32.952228217628296
20
119.90376078248779
10
32.952228217628303
20
109.9076133572536
10
37.948374155190649
20
109.90761632801261
0
LWPOLYLINE
5
107
100
AcDbEntity
8
0
100
AcDbPolyline
90
4
70
1
43
0.0
10
37.948374155190635
20
32.101900818906152
10
32.952228217628267
20
32.101900818906152
10
32.952228217628281
20
22.105730331729475
10
37.948374155190628
20
22.105733302488488
0
CIRCLE
5
108
100
AcDbEntity
8
0
100
AcDbCircle
10
-38.912976015426104
20
59.690000000000019
30
0
40
4.2500000000000071
210
0
220
-0
230
1
0
LWPOLYLINE
5
109
100
AcDbEntity
8
0
100
AcDbPolyline
90
4
70
1
43
0.0
10
71.737208621495995
20
57.39429326776775
10
81.737208621496009
20
57.39429326776775
10
81.737208621496009
20
62.39429326776775
10
71.737208621495995
20
62.39429326776775
0
LWPOLYLINE
5
110
100
AcDbEntity
8
0
100
AcDbPolyline
90
40
70
1
43
0.0
10
25.887000000000011
20
-5.9578033847889778
10
30.387000000000015
20
-5.9578033847889778
10
30.387000000000018
20
-10.78339338013274
10
40.387000000000015
20
-10.78339338013274
10
40.387000000000015
20
-5.9578033847889778
10
44.887000000000015
20
-5.9578033847889778
10
44.887000000000015
20
6.0421966152110151
10
40.387000000000015
20
6.0421966152110151
10
40.387000000000015
20
11.58784518741351
10
42.387000000000015
20
11.58784518741351
10
42.387000000000015
20
43.547564437074598
42
-0.41421356237309442
10
51.795000000000009
20
52.955564437074614
10
125.68697601542615
20
52.955564437074649
42
0.99999999999999989
10
125.68697601542611
20
66.424435562925396
10
51.795000000000016
20
66.424435562925382
42
-0.41421356237309614
10
42.387000000000022
20
75.832435562925383
10
42.387000000000015
20
109.06215481258648
10
40.387000000000015
20
109.06215481258648
10
40.387000000000015
20
114.60780338478898
10
44.887000000000015
20
114.60780338478898
10
44.887000000000015
20
126.60780338478898
10
40.387000000000015
20
126.60780338478898
10
40.387000000000015
20
131.43360661986725
10
30.387000000000015
20
131.43360661986725
10
30.387000000000015
20
126.60780338478898
10
25.887000000000011
20
126.60780338478898
10
25.887000000000011
20
114.60780338478898
10
30.387000000000015
20
114.60780338478898
10
30.387000000000015
20
109.06215481258648
10
28.145431231368036
20
109.06215481258648
10
28.14543123136805
20
75.832435562925411
42
-0.41421356237309415
10
18.737431231368049
20
66.424435562925396
10
-38.912976015426118
20
66.424435562925368
42
0.99999999999999989
10
-38.912976015426082
20
52.955564437074656
10
18.737431231368046
20
52.955564437074649
42
-0.41421356237309526
10
28.145431231368036
20
43.547564437074655
10
28.145431231368043
20
11.58784518741351
10
30.387000000000015
20
11.58784518741351
10
30.387000000000015
20
6.0421966152110151
10
25.887000000000011
20
6.0421966152110151
0
LWPOLYLINE
5
111
100
AcDbEntity
8
0
100
AcDbPolyline
90
6
70
1
43
0.0
10
148.11977501314249
20
31.572843527746613
42
-0.41421356237309637
10
147.11977501314249
20
32.572843527746613
10
147.11977501314254
20
39.862157903979671
42
-0.63602473464387699
10
148.76027989421721
20
40.630112002425321
10
157.50003975474218
20
33.340797626192277
42
-0.7013169592061359
10
156.85953487366746
20
31.572843527746613
0
LWPOLYLINE
5
112
100
AcDbEntity
8
0
100
AcDbPolyline
90
8
70
1
43
0.0
10
81.409397148835453
20
44.568562539687129
10
81.409397148835453
20
31.572843527746606
10
142.11977501314249
20
31.572843527746617
10
142.11977501314249
20
44.568562539687129
10
142.13935528929622
20
44.568562539687129
10
142.13935528929622
20
46.16856253968713
10
81.382080058137291
20
46.16856253968713
10
81.382080058137291
20
44.568562539687129
0
LWPOLYLINE
5
113
100
AcDbEntity
8
0
100
AcDbPolyline
90
6
70
1
43
0.0
10
67.161406234646378
20
31.572843527746599
42
-0.69535819329594706
10
66.508680160315407
20
33.330437529761205
10
74.756671074504496
20
40.436722315833762
42
-0.6416648603318803
10
76.409397148835467
20
39.679128313819163
10
76.409397148835453
20
32.57284352774662
42
-0.41421356237309243
10
75.409397148835467
20
31.572843527746613
0
LWPOLYLINE
5
114
100
AcDbEntity
8
0
100
AcDbPolyline
90
27
70
1
43
0.0
10
46.211649386447249
20
32.07284352774662
10
46.211649386447249
20
26.07284352774662
10
52.188525294505396
20
26.07284352774662
10
52.188525294505396
20
21.07284352774662
10
63.188525294505389
20
21.07284352774662
10
63.188525294505389
20
26.07284352774662
10
72.538789945889377
20
26.07284352774662
10
72.538789945889391
20
21.07284352774662
10
83.538789945889391
20
21.07284352774662
10
83.538789945889391
20
26.07284352774662
10
139.99038221608856
20
26.07284352774662
10
139.99038221608856
20
21.07284352774662
10
150.99038221608859
20
21.07284352774662
10
150.99038221608862
20
26.07284352774662
10
160.34064686747254
20
26.07284352774662
10
160.34064686747254
20
21.07284352774662
10
171.34064686747254
20
21.07284352774662
10
171.34064686747257
20
26.07284352774662
10
178.06869780273797
20
26.07284352774662
10
178.06869780273797
20
32.072843527746613
10
167.78841333631823
20
32.072843527746628
42
-0.17555990327236345
10
167.4681608957809
20
32.188866478523785
10
145.92110581500378
20
50.159984778375971
42
0.17575862905692302
10
144.95919182904663
20
50.508053184749954
10
78.516317218124897
20
50.456818433486347
42
0.17949271126498373
10
77.538384770973522
20
50.093209882465771
10
56.622839948539358
20
32.072843527746613
0
LWPOLYLINE
5
115
100
AcDbEntity
8
0
100
AcDbPolyline
90
6
70
1
43
0.0
10
148.11977501314249
20
-0.73497723181906038
42
-0.41421356237309753
10
147.11977501314249
20
0.26502276818094472
10
147.11977501314254
20
7.5543371444140019
42
-0.63602473464387932
10
148.76027989421721
20
8.3222912428596558
10
157.50003975474218
20
1.0329768666266159
42
-0.70131695920613668
10
156.85953487366746
20
-0.7349772318190555
0
LWPOLYLINE
5
116
100
AcDbEntity
8
0
100
AcDbPolyline
90
8
70
1
43
0.0
10
81.409397148835453
20
12.26074178012146
10
81.409397148835453
20
-0.73497723181906061
10
142.11977501314249
20
-0.73497723181905172
10
142.11977501314249
20
12.26074178012146
10
142.13935528929622
20
12.26074178012146
10
142.13935528929622
20
13.860741780121462
10
81.382080058137291
20
13.860741780121462
10
81.382080058137291
20
12.26074178012146
0
LWPOLYLINE
5
117
100
AcDbEntity
8
0
100
AcDbPolyline
90
6
70
1
43
0.0
10
67.161406234646378
20
-0.7349772318190656
42
-0.69535819329594661
10
66.508680160315407
20
1.0226167701955358
10
74.756671074504496
20
8.1289015562680849
42
-0.64166486033188141
10
76.409397148835467
20
7.3713075542534945
10
76.409397148835453
20
0.26502276818095155
42
-0.41421356237309392
10
75.409397148835467
20
-0.73497723181905528
0
LWPOLYLINE
5
118
100
AcDbEntity
8
0
100
AcDbPolyline
90
27
70
1
43
0.0
10
46.211649386447249
20
-0.23497723181905128
10
46.211649386447249
20
-6.2349772318190517
10
52.188525294505396
20
-6.2349772318190517
10
52.188525294505396
20
-11.234977231819052
10
63.188525294505389
20
-11.234977231819052
10
63.188525294505389
20
-6.2349772318190517
10
72.538789945889377
20
-6.2349772318190517
10
72.538789945889391
20
-11.234977231819052
10
83.538789945889391
20
-11.234977231819052
10
83.538789945889391
20
-6.2349772318190517
10
139.99038221608856
20
-6.2349772318190517
10
139.99038221608856
20
-11.234977231819052
10
150.99038221608859
20
-11.234977231819052
10
150.99038221608862
20
-6.2349772318190517
10
160.34064686747254
20
-6.2349772318190517
10
160.34064686747254
20
-11.234977231819052
10
171.34064686747254
20
-11.234977231819052
10
171.34064686747257
20
-6.2349772318190517
10
178.06869780273797
20
-6.2349772318190517
10
178.06869780273797
20
-0.23497723181905239
10
167.78841333631823
20
-0.2349772318190449
42
-0.17555990327236368
10
167.4681608957809
20
-0.1189542810418831
10
145.92110581500378
20
17.852164018810299
42
0.17575862905692302
10
144.95919182904663
20
18.200232425184282
10
78.516317218124897
20
18.148997673920675
42
0.17949271126498301
10
77.538384770973522
20
17.785389122900106
10
56.622839948539358
20
-0.23497723181905206
0
LWPOLYLINE
5
119
100
AcDbEntity
8
0
100
AcDbPolyline
90
6
70
1
43
0.0
10
67.161406234646378
20
81.544175313801674
42
-0.69535819329594351
10
66.508680160315407
20
83.301769315816301
10
74.75667107450451
20
90.408054101888865
42
-0.64166486033188086
10
76.409397148835467
20
89.650460099874252
10
76.409397148835453
20
82.544175313801702
42
-0.41421356237308726
10
75.409397148835467
20
81.544175313801688
0
LWPOLYLINE
5
120
100
AcDbEntity
8
0
100
AcDbPolyline
90
8
70
1
43
0.0
10
81.409397148835453
20
94.53989432574221
10
81.409397148835453
20
81.544175313801688
10
142.11977501314249
20
81.544175313801702
10
142.11977501314249
20
94.53989432574221
10
142.13935528929622
20
94.53989432574221
10
142.13935528929622
20
96.139894325742219
10
81.382080058137291
20
96.139894325742219
10
81.382080058137291
20
94.53989432574221
0
LWPOLYLINE
5
121
100
AcDbEntity
8
0
100
AcDbPolyline
90
6
70
1
43
0.0
10
148.11977501314249
20
81.544175313801702
42
-0.41421356237310542
10
147.11977501314249
20
82.544175313801702
10
147.11977501314254
20
89.833489690034753
42
-0.63602473464389031
10
148.76027989421721
20
90.601443788480424
10
157.50003975474218
20
83.312129412247373
42
-0.70131695920614578
10
156.85953487366746
20
81.544175313801702
0
LWPOLYLINE
5
122
100
AcDbEntity
8
0
100
AcDbPolyline
90
27
70
1
43
0.0
10
140.49038221608856
20
71.544175313801702
10
140.49038221608856
20
76.544175313801702
10
83.038789945889391
20
76.544175313801702
10
83.038789945889391
20
71.544175313801702
10
73.038789945889391
20
71.544175313801702
10
73.038789945889377
20
76.544175313801702
10
62.688525294505396
20
76.544175313801702
10
62.688525294505396
20
71.544175313801702
10
52.688525294505396
20
71.544175313801702
10
52.688525294505396
20
76.544175313801702
10
46.711649386447249
20
76.544175313801702
10
46.711649386447249
20
81.544175313801702
10
56.808527335268828
20
81.544175313801702
10
77.864747808139015
20
99.685744667513561
42
-0.17949271126498373
10
78.516702772906584
20
99.92815036819394
10
144.95957738382833
20
99.979385119457561
42
-0.17575862905692322
10
145.60085337446645
20
99.747339515208239
10
167.14790845524357
20
81.776221215356045
42
0.17555990327237955
10
167.78841333631823
20
81.544175313801688
10
177.56869780273797
20
81.544175313801702
10
177.56869780273797
20
76.544175313801702
10
170.84064686747257
20
76.544175313801702
10
170.84064686747254
20
71.544175313801702
10
160.84064686747254
20
71.544175313801702
10
160.84064686747254
20
76.544175313801702
10
150.49038221608862
20
76.544175313801702
10
150.49038221608859
20
71.544175313801702
0
CIRCLE
5
123
100
AcDbEntity
8
0
100
AcDbCircle
10
154.43298635524852
20
59.690000000000012
30
0
40
4.2500000000000071
210
0
220
-0
230
1
0
LWPOLYLINE
5
124
100
AcDbEntity
8
0
100
AcDbPolyline
90
4
70
1
43
0.0
10
137.56153454796774
20
66.424435562925368
10
137.56153454796774
20
52.955564437074649
10
154.43298635524852
20
52.955564437074649
42
0.99999999999999989
10
154.43298635524849
20
66.424435562925368
0
LWPOLYLINE
5
125
100
AcDbEntity
8
0
100
AcDbPolyline
90
6
70
1
43
0.0
10
67.161406234646378
20
113.04430055437821
42
-0.69535819329594351
10
66.508680160315407
20
114.80189455639284
10
74.75667107450451
20
121.9081793424654
42
-0.64166486033188086
10
76.409397148835467
20
121.15058534045079
10
76.409397148835453
20
114.04430055437825
42
-0.41421356237308726
10
75.409397148835467
20
113.04430055437822
0
LWPOLYLINE
5
126
100
AcDbEntity
8
0
100
AcDbPolyline
90
8
70
1
43
0.0
10
81.409397148835453
20
126.04001956631876
10
81.409397148835453
20
113.04430055437822
10
142.11977501314249
20
113.04430055437825
10
142.11977501314249
20
126.04001956631876
10
142.13935528929622
20
126.04001956631876
10
142.13935528929622
20
127.64001956631876
10
81.382080058137291
20
127.64001956631876
10
81.382080058137291
20
126.04001956631876
0
LWPOLYLINE
5
127
100
AcDbEntity
8
0
100
AcDbPolyline
90
6
70
1
43
0.0
10
148.11977501314249
20
113.04430055437825
42
-0.41421356237310542
10
147.11977501314249
20
114.04430055437825
10
147.11977501314254
20
121.3336149306113
42
-0.63602473464389031
10
148.76027989421721
20
122.10156902905696
10
157.50003975474218
20
114.81225465282392
42
-0.70131695920614578
10
156.85953487366746
20
113.04430055437825
0
LWPOLYLINE
5
128
100
AcDbEntity
8
0
100
AcDbPolyline
90
27
70
1
43
0.0
10
140.49038221608856
20
103.04430055437825
10
140.49038221608856
20
108.04430055437825
10
83.038789945889391
20
108.04430055437825
10
83.038789945889391
20
103.04430055437825
10
73.038789945889391
20
103.04430055437825
10
73.038789945889377
20
108.04430055437825
10
62.688525294505396
20
108.04430055437825
10
62.688525294505396
20
103.04430055437825
10
52.688525294505396
20
103.04430055437825
10
52.688525294505396
20
108.04430055437825
10
46.711649386447249
20
108.04430055437825
10
46.711649386447249
20
113.04430055437825
10
56.808527335268828
20
113.04430055437825
10
77.864747808139015
20
131.1858699080901
42
-0.17949271126498373
10
78.516702772906584
20
131.42827560877049
10
144.95957738382833
20
131.47951036003411
42
-0.17575862905692322
10
145.60085337446645
20
131.24746475578479
10
167.14790845524357
20
113.27634645593258
42
0.17555990327237955
10
167.78841333631823
20
113.04430055437822
10
177.56869780273797
20
113.04430055437825
10
177.56869780273797
20
108.04430055437825
10
170.84064686747257
20
108.04430055437825
10
170.84064686747254
20
103.04430055437825
10
160.84064686747254
20
103.04430055437825
10
160.84064686747254
20
108.04430055437825
10
150.49038221608862
20
108.04430055437825
10
150.49038221608859
20
103.04430055437825
0
LWPOLYLINE
5
129
100
AcDbEntity
8
0
100
AcDbPolyline
90
4
70
1
43
0.0
10
18.838287392463307
20
108.27863780435669
10
18.838287392463304
20
120.27863780435668
10
13.838287392463311
20
120.27863780435665
10
13.838287392463311
20
108.27863780435665
0
CIRCLE
5
130
100
AcDbEntity
8
0
100
AcDbCircle
10
16.338287392463325
20
129.60444103943493
30
0
40
4.2500000000000071
210
0
220
-0
230
1
0
LWPOLYLINE
5
131
100
AcDbEntity
8
0
100
AcDbPolyline
90
6
70
1
43
0.0
10
23.07272295538867
20
107.03298923215416
10
23.07272295538867
20
129.60444103943496
42
0.99999999999999989
10
9.6038518295379625
20
129.6044410394349
10
9.6038518295379554
20
107.03298923215415
10
13.903851829537963
20
102.73298923215418
10
18.772722955388666
20
102.73298923215418
0
CIRCLE
5
132
100
AcDbEntity
8
0
100
AcDbCircle
10
-0.7623285182250239
20
129.96725600683973
30
0
40
4.2500000000000071
210
0
220
-0
230
1
0
LWPOLYLINE
5
133
100
AcDbEntity
8
0
100
AcDbPolyline
90
4
70
1
43
0.0
10
1.7376714817749699
20
108.64145277176149
10
1.7376714817749661
20
120.64145277176149
10
-3.2623285182250283
20
120.64145277176145
10
-3.2623285182250279
20
108.64145277176146
0
LWPOLYLINE
5
134
100
AcDbEntity
8
0
100
AcDbPolyline
90
6
70
1
43
0.0
10
5.972107044700329
20
107.395804199559
10
5.972107044700337
20
129.96725600683976
42
0.99999999999999989
10
-7.4967640811503866
20
129.9672560068397
10
-7.4967640811503884
20
107.39580419955897
10
-3.1967640811503761
20
103.095804199559
10
1.6721070447003261
20
103.095804199559
0
LWPOLYLINE
5
135
100
AcDbEntity
8
0
100
AcDbPolyline
90
4
70
1
43
0.0
10
-13.994259056029607
20
108.67421065313371
10
-13.994259056029613
20
120.6742106531337
10
-18.994259056029605
20
120.67421065313367
10
-18.994259056029605
20
108.67421065313367
0
CIRCLE
5
136
100
AcDbEntity
8
0
100
AcDbCircle
10
-16.494259056029591
20
130.00001388821195
30
0
40
4.2500000000000071
210
0
220
-0
230
1
0
LWPOLYLINE
5
137
100
AcDbEntity
8
0
100
AcDbPolyline
90
6
70
1
43
0.0
10
-9.759823493104248
20
107.42856208093119
10
-9.7598234931042445
20
130.00001388821198
42
0.99999999999999989
10
-23.228694618954954
20
130.00001388821192
10
-23.228694618954965
20
107.42856208093117
10
-18.928694618954953
20
103.1285620809312
10
-14.059823493104251
20
103.1285620809312
0
CIRCLE
5
138
100
AcDbEntity
8
0
100
AcDbCircle
10
-33.594874966717938
20
130.36282885561675
30
0
40
4.2500000000000071
210
0
220
-0
230
1
0
LWPOLYLINE
5
139
100
AcDbEntity
8
0
100
AcDbPolyline
90
4
70
1
43
0.0
10
-31.094874966717946
20
109.03702562053851
10
-31.094874966717949
20
121.03702562053851
10
-36.094874966717946
20
121.03702562053847
10
-36.094874966717946
20
109.03702562053849
0
LWPOLYLINE
5
140
100
AcDbEntity
8
0
100
AcDbPolyline
90
6
70
1
43
0.0
10
-26.860439403792586
20
107.79137704833602
10
-26.860439403792583
20
130.36282885561678
42
0.99999999999999989
10
-40.329310529643301
20
130.36282885561673
10
-40.329310529643301
20
107.79137704833599
10
-36.02931052964329
20
103.49137704833602
10
-31.160439403792594
20
103.49137704833602
0
CIRCLE
5
141
100
AcDbEntity
8
0
100
AcDbCircle
10
-33.990447815494953
20
95.156845314461762
30
0
40
4.2500000000000071
210
0
220
-0
230
1
0
LWPOLYLINE
5
142
100
AcDbEntity
8
0
100
AcDbPolyline
90
4
70
1
43
0.0
10
-31.490447815494957
20
73.831042079383522
10
-31.49044781549496
20
85.831042079383508
10
-36.49044781549496
20
85.831042079383479
10
-36.49044781549496
20
73.831042079383479
0
LWPOLYLINE
5
143
100
AcDbEntity
8
0
100
AcDbPolyline
90
6
70
1
43
0.0
10
-27.256012252569604
20
72.585393507181024
10
-27.256012252569597
20
95.156845314461805
42
0.99999999999999989
10
-40.724883378420316
20
95.156845314461719
10
-40.724883378420323
20
72.585393507180981
10
-36.424883378420304
20
68.285393507181027
10
-31.556012252569605
20
68.285393507181027
0
CIRCLE
5
144
100
AcDbEntity
8
0
100
AcDbCircle
10
-16.889831904806606
20
94.79403034705696
30
0
40
4.2500000000000071
210
0
220
-0
230
1
0
LWPOLYLINE
5
145
100
AcDbEntity
8
0
100
AcDbPolyline
90
4
70
1
43
0.0
10
-14.389831904806623
20
73.46822711197872
10
-14.389831904806627
20
85.468227111978706
10
-19.38983190480662
20
85.468227111978678
10
-19.38983190480662
20
73.468227111978678
0
LWPOLYLINE
5
146
100
AcDbEntity
8
0
100
AcDbPolyline
90
6
70
1
43
0.0
10
-10.155396341881264
20
72.222578539776208
10
-10.155396341881261
20
94.794030347056975
42
0.99999999999999989
10
-23.624267467731972
20
94.794030347056946
10
-23.624267467731976
20
72.22257853977618
10
-19.324267467731968
20
67.922578539776197
10
-14.455396341881265
20
67.922578539776197
0
CIRCLE
5
147
100
AcDbEntity
8
0
100
AcDbCircle
10
-1.1579013670020388
20
94.76127246568474
30
0
40
3.7500000000000071
210
0
220
-0
230
1
0
LWPOLYLINE
5
148
100
AcDbEntity
8
0
100
AcDbPolyline
90
4
70
1
43
0.0
10
-3.1579013670020433
20
84.935469230606458
10
-3.1579013670020428
20
73.935469230606472
10
0.84209863299795518
20
73.9354692306065
10
0.84209863299795129
20
84.935469230606486
0
LWPOLYLINE
5
149
100
AcDbEntity
8
0
100
AcDbPolyline
90
6
70
1
43
0.0
10
6.0765341959233146
20
71.982713877217449
10
6.0765341959233226
20
94.761272465684783
42
0.99999999999999989
10
-8.3923369299273993
20
94.761272465684698
10
-8.3923369299274082
20
71.982713877217435
10
-3.7994437111139368
20
67.389820658404005
10
1.4836409771098591
20
67.389820658404005
0
CIRCLE
5
150
100
AcDbEntity
8
0
100
AcDbCircle
10
15.942714543686309
20
94.398457498279939
30
0
40
3.7500000000000044
210
0
220
-0
230
1
0
LWPOLYLINE
5
151
100
AcDbEntity
8
0
100
AcDbPolyline
90
4
70
1
43
0.0
10
13.942714543686296
20
84.572654263201642
10
13.942714543686296
20
73.57265426320167
10
17.942714543686293
20
73.572654263201699
10
17.942714543686289
20
84.572654263201684
0
LWPOLYLINE
5
152
100
AcDbEntity
8
0
100
AcDbPolyline
90
6
70
1
43
0.0
10
23.177150106611656
20
71.619898909812633
10
23.177150106611649
20
94.398457498279953
42
0.99999999999999989
10
8.7082789807609657
20
94.398457498279924
10
8.7082789807609409
20
71.619898909812619
10
13.301172199574399
20
67.027005690999189
10
18.584256887798201
20
67.027005690999189
0
CIRCLE
5
153
100
AcDbEntity
8
0
100
AcDbCircle
10
17.384837565069795
20
21.441563470218128
30
0
40
3.7500000000000089
210
0
220
-0
230
1
0
LWPOLYLINE
5
154
100
AcDbEntity
8
0
100
AcDbPolyline
90
4
70
1
43
0.0
10
19.384837565069773
20
42.267366705296403
10
15.384837565069789
20
42.267366705296403
10
15.384837565069784
20
31.267366705296411
10
19.384837565069784
20
31.267366705296411
0
LWPOLYLINE
5
155
100
AcDbEntity
8
0
100
AcDbPolyline
90
6
70
1
43
0.0
10
10.150402002144446
20
44.446996370294123
10
10.15040200214443
20
21.441563470218128
42
0.99999999999999989
10
24.619273127995132
20
21.441563470218128
10
24.61927312799514
20
44.446996370294123
10
20.253254220790371
20
48.813015277498899
10
14.516420909349215
20
48.813015277498899
0
LWPOLYLINE
5
156
100
AcDbEntity
8
0
100
AcDbPolyline
90
4
70
1
43
0.0
10
2.7809034697102342
20
43.35800474347166
10
-1.2190965302897609
20
43.35800474347166
10
-1.2190965302897594
20
32.358004743471653
10
2.7809034697102386
20
32.35800474347166
0
CIRCLE
5
157
100
AcDbEntity
8
0
100
AcDbCircle
10
0.78090346971023905
20
22.532201508393371
30
0
40
3.7500000000000071
210
0
220
-0
230
1
0
LWPOLYLINE
5
158
100
AcDbEntity
8
0
100
AcDbPolyline
90
6
70
1
43
0.0
10
-6.4535320932151006
20
45.537634408469373
10
-6.4535320932151077
20
22.532201508393378
42
0.99999999999999989
10
8.0153390326356018
20
22.532201508393367
10
8.0153390326356
20
45.537634408469373
10
3.6493201254308287
20
49.903653315674148
10
-2.0875131860103364
20
49.903653315674141
0
CIRCLE
5
159
100
AcDbEntity
8
0
100
AcDbCircle
10
-16.306415272362258
20
33.198364354540175
30
0
40
3.7500000000000067
210
0
220
-0
230
1
0
LWPOLYLINE
5
160
100
AcDbEntity
8
0
100
AcDbPolyline
90
4
70
1
43
0.0
10
-9.571979709436933
20
50.069816161820967
10
-23.040850835287642
20
50.069816161820945
10
-23.040850835287642
20
33.198364354540175
42
0.99999999999999989
10
-9.5719797094369312
20
33.198364354540203
0
CIRCLE
5
161
100
AcDbEntity
8
0
100
AcDbCircle
10
-32.461855843089054
20
32.893950231690248
30
0
40
3.7500000000000089
210
0
220
-0
230
1
0
LWPOLYLINE
5
162
100
AcDbEntity
8
0
100
AcDbPolyline
90
4
70
1
43
0.0
10
-25.727420280163674
20
49.765402038971004
10
-39.196291406014431
20
49.765402038971018
10
-39.196291406014424
20
32.893950231690248
42
0.99999999999999989
10
-25.72742028016367
20
32.893950231690248
0
CIRCLE
5
163
100
AcDbEntity
8
0
100
AcDbCircle
10
-34.140129306030119
20
6.6009993122799848
30
0
40
4.2500000000000071
210
0
220
-0
230
1
0
LWPOLYLINE
5
164
100
AcDbEntity
8
0
100
AcDbPolyline
90
4
70
1
43
0.0
10
-27.405693743104745
20
23.472451119560755
10
-40.874564868955481
20
23.472451119560752
10
-40.874564868955488
20
6.6009993122799671
42
0.99999999999999989
10
-27.405693743104742
20
6.6009993122800026
0
CIRCLE
5
165
100
AcDbEntity
8
0
100
AcDbCircle
10
-16.734923959841097
20
7.7877178586110629
30
0
40
4.2500000000000071
210
0
220
-0
230
1
0
LWPOLYLINE
5
166
100
AcDbEntity
8
0
100
AcDbPolyline
90
4
70
1
43
0.0
10
-10.000488396915721
20
24.659169665891838
10
-23.46935952276646
20
24.659169665891831
10
-23.469359522766471
20
7.7877178586110452
42
0.99999999999999989
10
-10.000488396915719
20
7.7877178586110807
0
ENDSEC
0
SECTION
2
OBJECTS
0
DICTIONARY
5
C
100
AcDbDictionary
3
ACAD_GROUP
350
D
3
ACAD_MLINESTYLE
350
17
0
DICTIONARY
5
D
100
AcDbDictionary
0
DICTIONARY
5
1A
330
C
100
AcDbDictionary
0
DICTIONARY
5
17
100
AcDbDictionary
0
ENDSEC
0
EOF
